<svg xmlns="http://www.w3.org/2000/svg" viewBox="0 0 100 100"><defs><style>.a{fill:#fff;}.b{fill:#139ece;}</style></defs><rect class="a" width="100" height="100"/><path class="b" d="M90.83,100H9.19a33.84,33.84,0,0,1,2.47-6.85c7.65-15.54,19.94-24.48,37.49-25A42.07,42.07,0,0,1,90.83,100Z" transform="translate(0 0)"/><path class="b" d="M70.74,38.53A85.89,85.89,0,0,1,69,47.76c-2.44,8-8.33,12.56-16.72,13a32.68,32.68,0,0,1-8.44-.66C37.2,58.61,33,54.33,31.05,47.92c-2.32-7.71-2.35-15.34,2-22.47,3.71-6.13,9-10.06,16.34-10.5,5.22-.31,9.74,1.8,13.48,5.42A24.92,24.92,0,0,1,70.74,38.53Z" transform="translate(0 0)"/></svg>