<svg xmlns="http://www.w3.org/2000/svg" viewBox="0 0 286.65 161.24"><defs><style>.a{fill:#d3eaf4;}.b{fill:#0c94e8;}</style></defs><rect class="a" width="286.65" height="161.24"/><path class="b" d="M143.61,125v0l0,0Zm-1.1,1.93c-.31-1.33-.85-1.71-2.2-1.71q-28.23.07-56.45,0h-2l28.14-49c7,12.13,13.78,23.9,20.74,36l5.34-9c.31,1.1.49,1.69.65,2.28,1.65,6.07,3.33,12.12,4.91,18.2.32,1.21.82,1.72,2,1.41a6.7,6.7,0,0,0-.11-.9q-2.56-11.75-5.17-23.47a5.78,5.78,0,0,0-.41-.89c-.66,1-1.2,2-2,3.19-1.71-6.43-3.33-12.39-4.85-18.37a3,3,0,0,1,.48-1.88c2.54-4.65,5.08-9.29,7.73-13.87.76-1.31.88-2.23-.19-3.44-1.52-1.73-2.78-3.68-4.24-5.47a1.57,1.57,0,0,1,0-2.19c2.74-4,5.36-8.14,8.11-12.17a2.94,2.94,0,0,0,.36-2.76C141.7,37.37,140.1,32,138.6,26.6a2,2,0,0,0-2.25-1.72q-31.21.07-62.43,0c-1.51,0-1.92.41-1.92,1.92q.06,53.85,0,107.7c0,.57,0,1.12.08,1.73h72.94C144.16,133,143.24,130,142.51,126.89ZM110.83,36.57A12.15,12.15,0,1,1,98.46,48.25,12.24,12.24,0,0,1,110.83,36.57Z"/><path class="b" d="M143.61,125l44.66,0c5.67,0,11.33,0,17,0h2.07l-42-72.66-27.26,46.9a78.78,78.78,0,0,0-2-9.16c-1.31-3.76-.41-6.51,2.22-9.4,3.77-4.14,7.09-8.69,10.6-13.06.49-.61,1-1.23,1.54-2L143.23,57c2.77-3,5.28-6.11,8.22-8.76,2.64-2.38,3.38-4.75,2.37-8.21-1.27-4.36-1.94-8.89-2.87-13.35-.1-.5-.17-1-.3-1.73h1.9q30,0,60.08,0c1.6,0,2,.43,2,2q-.08,53.7,0,107.41c0,.61-.05,1.23-.09,2h-2q-32.25,0-64.49,0c-1.5,0-2.08-.4-2.35-1.89-.57-3.19-1.34-6.35-2-9.52Z"/></svg>