<?xml version="1.0" encoding="utf-8"?>
<!-- Generator: Adobe Illustrator 26.0.1, SVG Export Plug-In . SVG Version: 6.00 Build 0)  -->
<svg version="1.1" id="Layer_1" xmlns="http://www.w3.org/2000/svg" xmlns:xlink="http://www.w3.org/1999/xlink" x="0px" y="0px"
	 viewBox="0 0 100 100" style="enable-background:new 0 0 100 100;" xml:space="preserve">
<style type="text/css">
	.st0{fill:#139ECE;}
</style>
<path class="st0" d="M90.8,100H9.2c0.6-2.4,1.4-4.7,2.5-6.8c7.6-15.5,19.9-24.5,37.5-25C68.8,67.7,86.1,81,90.8,100z"/>
<path class="st0" d="M70.7,38.5c-0.4,3.1-1,6.2-1.7,9.2c-2.4,8-8.3,12.6-16.7,13c-2.8,0.1-5.7-0.1-8.4-0.7
	C37.2,58.6,33,54.3,31,47.9c-2.3-7.7-2.4-15.3,2-22.5c3.7-6.1,9-10.1,16.3-10.5c5.2-0.3,9.7,1.8,13.5,5.4
	C67.9,25.1,70.7,31.6,70.7,38.5z"/>
</svg>
