<?xml version="1.0" encoding="utf-8"?>
<!-- Generator: Adobe Illustrator 26.0.1, SVG Export Plug-In . SVG Version: 6.00 Build 0)  -->
<svg version="1.1" id="Layer_1" xmlns="http://www.w3.org/2000/svg" xmlns:xlink="http://www.w3.org/1999/xlink" x="0px" y="0px"
	 viewBox="0 0 31.5 26.2" style="enable-background:new 0 0 31.5 26.2;" xml:space="preserve">
<style type="text/css">
	.st0{fill:#260A2E;}
</style>
<path class="st0" d="M11.3,10.1c-0.4,0-0.4,0-0.4-0.4c0.2-2.9,2.5-5.1,5.4-5.2c0.2,0,0.2,0,0.2,0.2c0,0.6,0,0.6-0.5,0.6
	c-2.3,0.3-4,2.1-4.1,4.5C11.7,10.3,11.4,10,11.3,10.1z"/>
<path class="st0" d="M17.3,17.9c-2.2,0.4-4.2-0.2-6-1.5c-0.2-0.1-0.3-0.2-0.4,0c-0.4,0.4-0.7,0.8-1.2,1.2c-0.2,0.1-0.1,0.2,0,0.4
	c0.3,0.3,0.3,0.3,0,0.6c-1.7,1.6-3.3,3.2-4.9,4.8c-0.1,0.1-0.2,0.2-0.4,0c-0.5-0.5-1.1-1.1-1.6-1.6c-0.1-0.1-0.1-0.2,0-0.3
	c1.6-1.7,3.3-3.3,5-5.1c0.2-0.2,0.2-0.1,0.3,0c0.3,0.3,0.3,0.3,0.6,0c0.3-0.3,0.7-0.7,1.2-1.2c0.1-0.1,0.1-0.2,0-0.3
	c-3-3.4-2.5-8.5,0.8-11.5s8.6-2.5,11.6,0.8c0.1,0.2,0.3,0.3,0.4,0.5c0.7,1,1.3,2,1.5,3.1l-1.4-0.2c-0.3-0.1-0.6-0.3-0.7-0.6
	c-0.8-2-2.8-3.4-4.9-3.6C13.6,2.9,10.3,5.3,9.8,9s1.6,6.8,5.2,7.4l0.3,0.1L17.3,17.9z"/>
</svg>
