<?xml version="1.0" encoding="utf-8"?>
<!-- Generator: Adobe Illustrator 26.0.1, SVG Export Plug-In . SVG Version: 6.00 Build 0)  -->
<svg version="1.1" id="Layer_1" xmlns="http://www.w3.org/2000/svg" xmlns:xlink="http://www.w3.org/1999/xlink" x="0px" y="0px"
	 viewBox="0 0 31.5 26.2" style="enable-background:new 0 0 31.5 26.2;" xml:space="preserve">
<style type="text/css">
	.st0{fill:#260A2E;}
	.st1{fill:#0C94E8;}
</style>
<path class="st0" d="M14,14.3l4.3,3.1c0.9,0.7,1.8,1.3,2.7,2c0.1,0.1,0.3,0.1,0.5,0c0.9-0.5,1.9-0.9,2.8-1.3c0.1,0,0.2-0.2,0.3,0
	c0.1,0.2,0,0.2-0.1,0.3c-1,0.5-2,0.9-3,1.4c-0.2,0.1-0.3,0-0.4-0.1l-5.5-4l-1.4-1C14,14.6,13.9,14.4,14,14.3z"/>
<path class="st1" d="M28.3,10l-6.5-1.5c-0.3-0.1-0.6,0-0.8,0.3v0.1c-0.6,1.3-1.2,2.7-1.7,4c-0.1,0.2-0.2,0.3-0.4,0.4
	c-1.5,0.2-2.9,0.4-4.4,0.5c-0.1,0-0.2,0-0.3,0.1s0.1,0.1,0.1,0.2L21,19c0.1,0.1,0.3,0.1,0.5,0c0.9-0.4,1.8-0.9,2.7-1.3
	c0.2-0.1,0.2-0.2,0.2-0.4c-0.3-0.9-0.6-1.7-0.8-2.6c-0.1-0.2-0.2-0.3-0.3-0.3c-1-0.4-2-0.8-2.9-1.1c-0.3-0.1-0.3-0.2-0.2-0.4
	c0.5-1.1,1-2.2,1.5-3.3c0.1-0.3,0.3-0.4,0.6-0.3c0,0,0,0,0.1,0l1.4,0.3l3.8,0.9c0.4,0.1,0.4,0.2,0.3,0.6c0,0.1-0.1,0.2,0,0.3
	c0.1,0.2,0.2,0.5,0.3,0.7l0.1-0.1c0.1-0.4,0.3-0.7,0.5-1.1C29,10.4,28.8,10.1,28.3,10z M20.1,15.4l2.3,1.2c-0.2,0.2-0.5,0.3-0.8,0.4
	l-1.1,0.5c-0.1,0-0.2,0.1-0.3,0l-2.6-1.9v-0.1l2.2-0.3C19.9,15.3,20,15.4,20.1,15.4z"/>
<path class="st1" d="M29.5,17.4c-0.6-1.8-1.2-3.7-1.8-5.5c-0.1-0.3-0.4-0.5-0.7-0.5h-0.1c-1.1,0.3-2.1,0.7-3.2,1
	c-0.3,0.1-0.5,0.4-0.5,0.7v0.1c0.1,0.4,0.2,0.7,0.4,1.1c0.5,1.5,0.9,2.9,1.4,4.4c0.1,0.3,0.4,0.6,0.7,0.5c0.1,0,0.1,0,0.2,0l3.2-1
	c0.3-0.1,0.5-0.3,0.4-0.6C29.6,17.6,29.5,17.5,29.5,17.4z M27.6,18.4l-0.5,0.1c-0.1,0-0.2,0-0.2-0.1l0,0c0-0.1,0-0.2,0.1-0.3
	c0.2-0.1,0.3-0.1,0.5-0.2c0.2,0,0.2,0.1,0.3,0.2C27.8,18.3,27.7,18.4,27.6,18.4z M28.6,17.3c-0.9,0.3-1.9,0.6-2.8,0.9
	c-0.2,0.1-0.3-0.1-0.4-0.2l-1.3-4.1c-0.2-0.8-0.2-0.8,0.6-1.1l2-0.6l0.3-0.1c0.2,0,0.2,0.1,0.2,0.3c0.4,1.3,0.8,2.5,1.2,3.8
	c0.1,0.3,0.2,0.6,0.3,0.9S28.7,17.3,28.6,17.3L28.6,17.3z"/>
</svg>
